<svg xmlns="http://www.w3.org/2000/svg" viewBox="0 0 24 24" fill="#ffbf00" width="24" height="24">
  <path fill-rule="evenodd" d="M15.625 3.75a2.25 2.25 0 0 1 2.25 2.25v.344c.328.055.65.14.963.258a.75.75 0 0 1 .512.91l-1.11 4.443c.483.223.901.54 1.255.941a.75.75 0 0 1-1.06 1.06c-.39-.39-1.013-.69-1.71-.844v-3.3a.75.75 0 0 1 .75-.75h.01a.75.75 0 0 0 .74-.653l.3-1.498a.75.75 0 0 0-.73-.847H18a.75.75 0 0 1-.75-.75V6a.75.75 0 0 0-.75-.75h-4.5a.75.75 0 0 0-.75.75v.344c-.328.055-.65.14-.963.258a.75.75 0 0 0-.512.91l1.11 4.443c-.483.223-.901.54-1.255.941a.75.75 0 0 0 1.06 1.06c.39-.39 1.013-.69 1.71-.844v3.3a.75.75 0 0 0-.75.75h-.01a.75.75 0 0 1-.74-.653l-.3-1.498a.75.75 0 0 1 .73-.847H9a.75.75 0 0 0 .75-.75V6A2.25 2.25 0 0 1 12 3.75h3.625ZM10.5 13.5a.75.75 0 0 0-.75.75v3.3a.75.75 0 0 1-.75.75h-.01a.75.75 0 0 0-.74.653l-.3 1.498a.75.75 0 0 0 .73.847H9a.75.75 0 0 1 .75.75v1.5a.75.75 0 0 0 1.5 0v-1.5a.75.75 0 0 1 .75-.75h3a.75.75 0 0 1 .75.75v1.5a.75.75 0 0 0 1.5 0v-1.5a.75.75 0 0 1 .75-.75h.01a.75.75 0 0 0 .74-.653l.3-1.498a.75.75 0 0 0-.73-.847H15a.75.75 0 0 1-.75-.75v-3.3a.75.75 0 0 0-.75-.75h-3Z" clip-rule="evenodd" />
</svg>